<svg viewBox="0 0 1384 850" xmlns="http://www.w3.org/2000/svg" font-family="Segoe UI,Arial,sans-serif" role="img">
<title>Data model: production vs branch</title>
<defs><marker id="ah" markerWidth="8" markerHeight="8" refX="7" refY="4" orient="auto"><path d="M0,0 L8,4 L0,8 z" fill="#999"/></marker><marker id="ahr" markerWidth="8" markerHeight="8" refX="7" refY="4" orient="auto"><path d="M0,0 L8,4 L0,8 z" fill="#C0392B"/></marker></defs>
<rect x="0" y="0" width="1384" height="850" fill="#FFFFFF"/>
<text x="40" y="44" font-size="26" font-weight="700" fill="#1F3864">Operating-Model Data — Production vs Branch (proud-lab)</text>
<text x="40" y="72" font-size="14" fill="#555">Each box: PROD&#8594;BRANCH row count. Red = value-stream link tables wiped to 0 by the spine rebuild (connectivity severed).</text>
<rect x="28" y="114" width="240" height="376" rx="10" fill="#F8F9FB" stroke="#E0E0E0"/>
<text x="148.0" y="136" font-size="13" font-weight="700" text-anchor="middle" fill="#1F3864">Org spine</text>
<rect x="300" y="114" width="240" height="456" rx="10" fill="#F8F9FB" stroke="#E0E0E0"/>
<text x="420.0" y="136" font-size="13" font-weight="700" text-anchor="middle" fill="#1F3864">Value-stream spine (rebuilt)</text>
<rect x="572" y="114" width="240" height="696" rx="10" fill="#F8F9FB" stroke="#E0E0E0"/>
<text x="692.0" y="136" font-size="13" font-weight="700" text-anchor="middle" fill="#C0392B">VS connectivity links (SEVERED)</text>
<rect x="844" y="114" width="240" height="456" rx="10" fill="#F8F9FB" stroke="#E0E0E0"/>
<text x="964.0" y="136" font-size="13" font-weight="700" text-anchor="middle" fill="#1F3864">Work & role detail</text>
<rect x="1116" y="114" width="240" height="296" rx="10" fill="#F8F9FB" stroke="#E0E0E0"/>
<text x="1236.0" y="136" font-size="13" font-weight="700" text-anchor="middle" fill="#1F3864">Unified graph (rework)</text>
<path d="M256,200.0 C148.0,200.0 148.0,280.0 40,280.0" fill="none" stroke="#999" stroke-width="1.3" marker-end="url(#ah)" opacity="0.5"/>
<path d="M256,280.0 C148.0,280.0 148.0,360.0 40,360.0" fill="none" stroke="#999" stroke-width="1.3" marker-end="url(#ah)" opacity="0.5"/>
<path d="M256,360.0 C148.0,360.0 148.0,440.0 40,440.0" fill="none" stroke="#999" stroke-width="1.3" marker-end="url(#ah)" opacity="0.5"/>
<path d="M256,280.0 C148.0,280.0 148.0,440.0 40,440.0" fill="none" stroke="#999" stroke-width="1.3" marker-end="url(#ah)" opacity="0.5"/>
<path d="M256,200.0 C284.0,200.0 284.0,280.0 312,280.0" fill="none" stroke="#999" stroke-width="1.3" marker-end="url(#ah)" opacity="0.5"/>
<path d="M528,200.0 C420.0,200.0 420.0,280.0 312,280.0" fill="none" stroke="#999" stroke-width="1.3" marker-end="url(#ah)" opacity="0.5"/>
<path d="M528,280.0 C420.0,280.0 420.0,360.0 312,360.0" fill="none" stroke="#999" stroke-width="1.3" marker-end="url(#ah)" opacity="0.5"/>
<path d="M528,280.0 C420.0,280.0 420.0,440.0 312,440.0" fill="none" stroke="#999" stroke-width="1.3" marker-end="url(#ah)" opacity="0.5"/>
<path d="M256,440.0 C420.0,440.0 420.0,200.0 584,200.0" fill="none" stroke="#C0392B" stroke-width="2.2" stroke-dasharray="6 4" marker-end="url(#ahr)" opacity="0.9"/>
<path d="M528,280.0 C556.0,280.0 556.0,200.0 584,200.0" fill="none" stroke="#C0392B" stroke-width="2.2" stroke-dasharray="6 4" marker-end="url(#ahr)" opacity="0.9"/>
<path d="M856,200.0 C828.0,200.0 828.0,280.0 800,280.0" fill="none" stroke="#C0392B" stroke-width="2.2" stroke-dasharray="6 4" marker-end="url(#ahr)" opacity="0.9"/>
<path d="M528,280.0 C556.0,280.0 556.0,280.0 584,280.0" fill="none" stroke="#C0392B" stroke-width="2.2" stroke-dasharray="6 4" marker-end="url(#ahr)" opacity="0.9"/>
<path d="M528,440.0 C556.0,440.0 556.0,360.0 584,360.0" fill="none" stroke="#C0392B" stroke-width="2.2" stroke-dasharray="6 4" marker-end="url(#ahr)" opacity="0.9"/>
<path d="M856,200.0 C828.0,200.0 828.0,360.0 800,360.0" fill="none" stroke="#C0392B" stroke-width="2.2" stroke-dasharray="6 4" marker-end="url(#ahr)" opacity="0.9"/>
<path d="M528,440.0 C556.0,440.0 556.0,440.0 584,440.0" fill="none" stroke="#C0392B" stroke-width="2.2" stroke-dasharray="6 4" marker-end="url(#ahr)" opacity="0.9"/>
<path d="M528,280.0 C556.0,280.0 556.0,520.0 584,520.0" fill="none" stroke="#C0392B" stroke-width="2.2" stroke-dasharray="6 4" marker-end="url(#ahr)" opacity="0.9"/>
<path d="M528,280.0 C556.0,280.0 556.0,600.0 584,600.0" fill="none" stroke="#C0392B" stroke-width="2.2" stroke-dasharray="6 4" marker-end="url(#ahr)" opacity="0.9"/>
<path d="M528,280.0 C556.0,280.0 556.0,680.0 584,680.0" fill="none" stroke="#C0392B" stroke-width="2.2" stroke-dasharray="6 4" marker-end="url(#ahr)" opacity="0.9"/>
<path d="M528,280.0 C556.0,280.0 556.0,760.0 584,760.0" fill="none" stroke="#C0392B" stroke-width="2.2" stroke-dasharray="6 4" marker-end="url(#ahr)" opacity="0.9"/>
<path d="M256,440.0 C556.0,440.0 556.0,520.0 856,520.0" fill="none" stroke="#999" stroke-width="1.3" marker-end="url(#ah)" opacity="0.5"/>
<path d="M256,440.0 C556.0,440.0 556.0,440.0 856,440.0" fill="none" stroke="#999" stroke-width="1.3" marker-end="url(#ah)" opacity="0.5"/>
<path d="M1072,280.0 C964.0,280.0 964.0,360.0 856,360.0" fill="none" stroke="#999" stroke-width="1.3" marker-end="url(#ah)" opacity="0.5"/>
<path d="M528,280.0 C692.0,280.0 692.0,280.0 856,280.0" fill="none" stroke="#9B59B6" stroke-width="1.3" stroke-dasharray="6 4" marker-end="url(#ah)" opacity="0.5"/>
<path d="M1344,200.0 C1236.0,200.0 1236.0,280.0 1128,280.0" fill="none" stroke="#999" stroke-width="1.3" marker-end="url(#ah)" opacity="0.5"/>
<rect x="40" y="170" width="216" height="60" rx="8" fill="#EAF2F8" stroke="#5499C7" stroke-width="1.6"/>
<text x="52" y="194" font-size="14" font-weight="700" fill="#222">Company</text>
<text x="52" y="216" font-size="13" fill="#444">1 &#8594; <tspan font-weight="700">1</tspan></text>
<text x="244" y="216" font-size="13" font-weight="700" text-anchor="end" fill="#666">=</text>
<rect x="40" y="250" width="216" height="60" rx="8" fill="#EAF2F8" stroke="#5499C7" stroke-width="1.6"/>
<text x="52" y="274" font-size="14" font-weight="700" fill="#222">Division</text>
<text x="52" y="296" font-size="13" fill="#444">15 &#8594; <tspan font-weight="700">15</tspan></text>
<text x="244" y="296" font-size="13" font-weight="700" text-anchor="end" fill="#666">=</text>
<rect x="40" y="330" width="216" height="60" rx="8" fill="#EAF2F8" stroke="#5499C7" stroke-width="1.6"/>
<text x="52" y="354" font-size="14" font-weight="700" fill="#222">Department</text>
<text x="52" y="376" font-size="13" fill="#444">99 &#8594; <tspan font-weight="700">99</tspan></text>
<text x="244" y="376" font-size="13" font-weight="700" text-anchor="end" fill="#666">=</text>
<rect x="40" y="410" width="216" height="60" rx="8" fill="#FCF3CF" stroke="#B7950B" stroke-width="1.6"/>
<text x="52" y="434" font-size="14" font-weight="700" fill="#222">Role</text>
<text x="52" y="456" font-size="13" fill="#444">282 &#8594; <tspan font-weight="700">299</tspan></text>
<text x="244" y="456" font-size="13" font-weight="700" text-anchor="end" fill="#1E8449">+17</text>
<rect x="312" y="170" width="216" height="60" rx="8" fill="#FEF5E7" stroke="#E67E22" stroke-width="1.6"/>
<text x="324" y="194" font-size="14" font-weight="700" fill="#222">ValueStreamDomain</text>
<text x="324" y="216" font-size="13" fill="#444">7 &#8594; <tspan font-weight="700">7</tspan></text>
<text x="516" y="216" font-size="13" font-weight="700" text-anchor="end" fill="#666">=</text>
<rect x="312" y="250" width="216" height="60" rx="8" fill="#FEF5E7" stroke="#E67E22" stroke-width="1.6"/>
<text x="324" y="274" font-size="14" font-weight="700" fill="#222">ValueStream</text>
<text x="324" y="296" font-size="13" fill="#444">36 &#8594; <tspan font-weight="700">132</tspan></text>
<text x="516" y="296" font-size="13" font-weight="700" text-anchor="end" fill="#1E8449">+96</text>
<rect x="312" y="330" width="216" height="60" rx="8" fill="#FEF5E7" stroke="#E67E22" stroke-width="1.6"/>
<text x="324" y="354" font-size="14" font-weight="700" fill="#222">SubValueStream</text>
<text x="324" y="376" font-size="13" fill="#444">1,390 &#8594; <tspan font-weight="700">868</tspan></text>
<text x="516" y="376" font-size="13" font-weight="700" text-anchor="end" fill="#B03A2E">-522</text>
<rect x="312" y="410" width="216" height="60" rx="8" fill="#FEF5E7" stroke="#E67E22" stroke-width="1.6"/>
<text x="324" y="434" font-size="14" font-weight="700" fill="#222">ProcessStep</text>
<text x="324" y="456" font-size="13" fill="#444">1,052 &#8594; <tspan font-weight="700">8,355</tspan></text>
<text x="516" y="456" font-size="13" font-weight="700" text-anchor="end" fill="#1E8449">+7303</text>
<rect x="312" y="490" width="216" height="60" rx="8" fill="#FEF5E7" stroke="#E67E22" stroke-width="1.6"/>
<text x="324" y="514" font-size="14" font-weight="700" fill="#222">Level</text>
<text x="324" y="536" font-size="13" fill="#444">896 &#8594; <tspan font-weight="700">1,012</tspan></text>
<text x="516" y="536" font-size="13" font-weight="700" text-anchor="end" fill="#1E8449">+116</text>
<rect x="584" y="170" width="216" height="60" rx="8" fill="#FDEDEC" stroke="#C0392B" stroke-width="2.5"/>
<text x="596" y="194" font-size="14" font-weight="700" fill="#222">RoleValueStream</text>
<text x="596" y="216" font-size="13" fill="#444">523 &#8594; <tspan font-weight="700">0</tspan></text>
<text x="788" y="216" font-size="13" font-weight="700" text-anchor="end" fill="#C0392B">-523</text>
<rect x="584" y="250" width="216" height="60" rx="8" fill="#FDEDEC" stroke="#C0392B" stroke-width="2.5"/>
<text x="596" y="274" font-size="14" font-weight="700" fill="#222">ApplicationValueStream</text>
<text x="596" y="296" font-size="13" fill="#444">63 &#8594; <tspan font-weight="700">0</tspan></text>
<text x="788" y="296" font-size="13" font-weight="700" text-anchor="end" fill="#C0392B">-63</text>
<rect x="584" y="330" width="216" height="60" rx="8" fill="#FDEDEC" stroke="#C0392B" stroke-width="2.5"/>
<text x="596" y="354" font-size="14" font-weight="700" fill="#222">StepAppUsage</text>
<text x="596" y="376" font-size="13" fill="#444">1,250 &#8594; <tspan font-weight="700">0</tspan></text>
<text x="788" y="376" font-size="13" font-weight="700" text-anchor="end" fill="#C0392B">-1250</text>
<rect x="584" y="410" width="216" height="60" rx="8" fill="#FDEDEC" stroke="#C0392B" stroke-width="2.5"/>
<text x="596" y="434" font-size="14" font-weight="700" fill="#222">StepDeliverable</text>
<text x="596" y="456" font-size="13" fill="#444">811 &#8594; <tspan font-weight="700">0</tspan></text>
<text x="788" y="456" font-size="13" font-weight="700" text-anchor="end" fill="#C0392B">-811</text>
<rect x="584" y="490" width="216" height="60" rx="8" fill="#FDEDEC" stroke="#C0392B" stroke-width="2.5"/>
<text x="596" y="514" font-size="14" font-weight="700" fill="#222">IoItem</text>
<text x="596" y="536" font-size="13" fill="#444">962 &#8594; <tspan font-weight="700">0</tspan></text>
<text x="788" y="536" font-size="13" font-weight="700" text-anchor="end" fill="#C0392B">-962</text>
<rect x="584" y="570" width="216" height="60" rx="8" fill="#FDEDEC" stroke="#C0392B" stroke-width="2.5"/>
<text x="596" y="594" font-size="14" font-weight="700" fill="#222">Metric</text>
<text x="596" y="616" font-size="13" fill="#444">267 &#8594; <tspan font-weight="700">0</tspan></text>
<text x="788" y="616" font-size="13" font-weight="700" text-anchor="end" fill="#C0392B">-267</text>
<rect x="584" y="650" width="216" height="60" rx="8" fill="#FDEDEC" stroke="#C0392B" stroke-width="2.5"/>
<text x="596" y="674" font-size="14" font-weight="700" fill="#222">RequirementValueStream</text>
<text x="596" y="696" font-size="13" fill="#444">477 &#8594; <tspan font-weight="700">0</tspan></text>
<text x="788" y="696" font-size="13" font-weight="700" text-anchor="end" fill="#C0392B">-477</text>
<rect x="584" y="730" width="216" height="60" rx="8" fill="#FDEDEC" stroke="#C0392B" stroke-width="2.5"/>
<text x="596" y="754" font-size="14" font-weight="700" fill="#222">InitiativeValueStream</text>
<text x="596" y="776" font-size="13" fill="#444">9 &#8594; <tspan font-weight="700">0</tspan></text>
<text x="788" y="776" font-size="13" font-weight="700" text-anchor="end" fill="#C0392B">-9</text>
<rect x="856" y="170" width="216" height="60" rx="8" fill="#FCF3CF" stroke="#B7950B" stroke-width="1.6"/>
<text x="868" y="194" font-size="14" font-weight="700" fill="#222">Application</text>
<text x="868" y="216" font-size="13" fill="#444">61 &#8594; <tspan font-weight="700">56</tspan></text>
<text x="1060" y="216" font-size="13" font-weight="700" text-anchor="end" fill="#B03A2E">-5</text>
<rect x="856" y="250" width="216" height="60" rx="8" fill="#FCF3CF" stroke="#B7950B" stroke-width="1.6"/>
<text x="868" y="274" font-size="14" font-weight="700" fill="#222">Deliverable</text>
<text x="868" y="296" font-size="13" fill="#444">568 &#8594; <tspan font-weight="700">688</tspan></text>
<text x="1060" y="296" font-size="13" font-weight="700" text-anchor="end" fill="#1E8449">+120</text>
<rect x="856" y="330" width="216" height="60" rx="8" fill="#FCF3CF" stroke="#B7950B" stroke-width="1.6"/>
<text x="868" y="354" font-size="14" font-weight="700" fill="#222">Task</text>
<text x="868" y="376" font-size="13" fill="#444">5,795 &#8594; <tspan font-weight="700">6,256</tspan></text>
<text x="1060" y="376" font-size="13" font-weight="700" text-anchor="end" fill="#1E8449">+461</text>
<rect x="856" y="410" width="216" height="60" rx="8" fill="#FCF3CF" stroke="#B7950B" stroke-width="1.6"/>
<text x="868" y="434" font-size="14" font-weight="700" fill="#222">RoleTask</text>
<text x="868" y="456" font-size="13" fill="#444">5,615 &#8594; <tspan font-weight="700">5,698</tspan></text>
<text x="1060" y="456" font-size="13" font-weight="700" text-anchor="end" fill="#1E8449">+83</text>
<rect x="856" y="490" width="216" height="60" rx="8" fill="#EAF2F8" stroke="#5499C7" stroke-width="1.6"/>
<text x="868" y="514" font-size="14" font-weight="700" fill="#222">ChecklistItem</text>
<text x="868" y="536" font-size="13" fill="#444">5,604 &#8594; <tspan font-weight="700">5,604</tspan></text>
<text x="1060" y="536" font-size="13" font-weight="700" text-anchor="end" fill="#666">=</text>
<rect x="1128" y="170" width="216" height="60" rx="8" fill="#FEF5E7" stroke="#E67E22" stroke-width="1.6"/>
<text x="1140" y="194" font-size="14" font-weight="700" fill="#222">Node</text>
<text x="1140" y="216" font-size="13" fill="#444">2,674 &#8594; <tspan font-weight="700">9,782</tspan></text>
<text x="1332" y="216" font-size="13" font-weight="700" text-anchor="end" fill="#1E8449">+7108</text>
<rect x="1128" y="250" width="216" height="60" rx="8" fill="#FDEDEC" stroke="#C0392B" stroke-width="2.5"/>
<text x="1140" y="274" font-size="14" font-weight="700" fill="#222">NodeLink</text>
<text x="1140" y="296" font-size="13" fill="#444">3,308 &#8594; <tspan font-weight="700">111</tspan></text>
<text x="1332" y="296" font-size="13" font-weight="700" text-anchor="end" fill="#C0392B">-3197</text>
<rect x="1128" y="330" width="216" height="60" rx="8" fill="#EAF2F8" stroke="#5499C7" stroke-width="1.6"/>
<text x="1140" y="354" font-size="14" font-weight="700" fill="#222">NodeType</text>
<text x="1140" y="376" font-size="13" fill="#444">10 &#8594; <tspan font-weight="700">10</tspan></text>
<text x="1332" y="376" font-size="13" font-weight="700" text-anchor="end" fill="#666">=</text>
<text x="40" y="816" font-size="12" fill="#333">Legend:</text>
<rect x="110" y="805" width="14" height="14" rx="3" fill="#C0392B"/>
<text x="130" y="816" font-size="12" fill="#333">Severed / wiped to 0</text>
<rect x="294" y="805" width="14" height="14" rx="3" fill="#E67E22"/>
<text x="314" y="816" font-size="12" fill="#333">Major rebuild</text>
<rect x="429" y="805" width="14" height="14" rx="3" fill="#B7950B"/>
<text x="449" y="816" font-size="12" fill="#333">Minor change</text>
<rect x="557" y="805" width="14" height="14" rx="3" fill="#5499C7"/>
<text x="577" y="816" font-size="12" fill="#333">Identical</text>
<rect x="664" y="805" width="14" height="14" rx="3" fill="#9B59B6"/>
<text x="684" y="816" font-size="12" fill="#333">Nullable FK</text>
</svg>